<svg id="Group_15830" data-name="Group 15830" xmlns="http://www.w3.org/2000/svg" xmlns:xlink="http://www.w3.org/1999/xlink" width="42.514" height="42.514" viewBox="0 0 42.514 42.514">
  <defs>
    <clipPath id="clip-path">
      <rect id="Rectangle_21" data-name="Rectangle 21" width="42.514" height="42.514" fill="#67fff2"/>
    </clipPath>
    <clipPath id="clip-path-2">
      <rect id="Rectangle_17" data-name="Rectangle 17" width="23" height="23" transform="translate(0 0)"/>
    </clipPath>
  </defs>
  <g id="Group_15855" data-name="Group 15855">
    <g id="Group_15854" data-name="Group 15854">
      <ellipse id="Ellipse_4" data-name="Ellipse 4" cx="14.5" cy="14.5" rx="14.5" ry="14.5" transform="translate(6.514 7)" fill="#67fff2"/>
      <g id="Group_11" data-name="Group 11">
        <g id="Group_10" data-name="Group 10" clip-path="url(#clip-path)">
          <path id="Path_2436" data-name="Path 2436" d="M77.69,79.975H79.7c0-.532-.023-1.068-.069-1.6l-2.006.175c.041.469.062.947.062,1.42m-.171-2.361,1.993-.292c-.077-.526-.179-1.054-.3-1.57l-1.959.467c.109.458.2.928.268,1.395M77,75.3l1.928-.582c-.154-.509-.332-1.016-.53-1.509l-1.869.751c.176.438.334.889.471,1.341m-.85-2.21,1.821-.86c-.227-.48-.478-.956-.746-1.414l-1.738,1.017c.239.408.462.83.663,1.257m-1.166-2.061,1.675-1.118c-.294-.441-.612-.875-.945-1.289l-1.571,1.26c.3.368.578.754.84,1.147m-1.455-1.868,1.495-1.35c-.356-.394-.733-.777-1.122-1.138l-1.371,1.476c.346.321.682.662,1,1.012m-1.711-1.637L73.1,65.976c-.409-.338-.839-.662-1.276-.962l-1.141,1.659c.389.267.77.555,1.135.856m-1.93-1.369,1.042-1.723c-.454-.275-.926-.532-1.4-.766l-.886,1.809c.423.207.843.436,1.247.681m-2.108-1.071.778-1.858c-.49-.205-.994-.391-1.5-.551l-.61,1.919c.449.143.9.307,1.332.49m-2.243-.75.5-1.952c-.514-.131-1.041-.24-1.565-.324l-.321,1.988c.466.075.934.172,1.391.288m-2.33-.412.2-2c-.526-.054-1.063-.085-1.594-.092l-.029,2.014c.473.007.951.034,1.419.082" transform="translate(-40.301 -58.718)" fill="#67fff2"/>
          <path id="Path_2437" data-name="Path 2437" d="M61.794,440.35A18.132,18.132,0,0,0,79.94,422.2H77.926a16.132,16.132,0,0,1-16.132,16.132Z" transform="translate(-40.537 -400.947)" fill="#67fff2"/>
          <path id="Path_2438" data-name="Path 2438" d="M444.746,440.348l.029-2.014c-.473-.007-.951-.034-1.419-.082l-.2,2c.526.054,1.063.085,1.594.092m-2.651-.231.321-1.988c-.466-.075-.934-.172-1.391-.288l-.5,1.952c.514.131,1.041.24,1.565.324m-2.59-.617.61-1.919c-.449-.143-.9-.308-1.332-.49L438,438.948c.49.205.994.391,1.5.551m-2.469-.991.886-1.808c-.423-.208-.843-.436-1.247-.681l-1.042,1.723c.454.275.926.533,1.4.766m-2.3-1.343,1.141-1.659c-.389-.268-.771-.556-1.135-.856l-1.282,1.553c.409.338.838.662,1.275.962m-2.077-1.664,1.371-1.476c-.346-.321-.682-.662-1-1.012l-1.495,1.35c.356.394.733.777,1.122,1.138m-1.813-1.949,1.571-1.26c-.3-.368-.578-.754-.84-1.147l-1.675,1.118c.294.441.612.875.945,1.289m-1.51-2.193,1.738-1.017c-.239-.407-.462-.83-.663-1.257l-1.821.86c.227.48.478.956.746,1.414m-1.173-2.393,1.869-.751c-.176-.438-.334-.889-.471-1.341l-1.928.582c.154.509.332,1.016.53,1.509m-.808-2.539,1.959-.467c-.109-.458-.2-.928-.268-1.395l-1.993.292c.077.526.178,1.054.3,1.57m-.425-2.628,2.006-.175c-.041-.469-.062-.947-.062-1.42h-2.014c0,.532.023,1.068.069,1.6" transform="translate(-423.752 -400.947)" fill="#67fff2"/>
          <path id="Path_2439" data-name="Path 2439" d="M422.2,79.94h2.014A16.132,16.132,0,0,1,440.35,63.808V61.794A18.132,18.132,0,0,0,422.2,79.94" transform="translate(-419.093 -58.683)" fill="#67fff2"/>
        </g>
      </g>
    </g>
    <g id="Group_5" data-name="Group 5" transform="translate(9.514 10)">
      <g id="Group_4" data-name="Group 4" transform="translate(0 0)" clip-path="url(#clip-path-2)">
        <path id="Path_2" data-name="Path 2" d="M22.31,11.155A11.155,11.155,0,1,1,11.155,0,11.169,11.169,0,0,1,22.31,11.155m-11.155-8.2a8.2,8.2,0,1,0,8.2,8.2,8.207,8.207,0,0,0-8.2-8.2" transform="translate(0.397 0.397)"/>
        <path id="Path_3" data-name="Path 3" d="M17.223,33.453a.4.4,0,0,1,0-.72L22.6,30.045a.4.4,0,0,1,.583.36v1.21h6.586a.4.4,0,0,1,.4.4v2.15a.4.4,0,0,1-.4.4H23.182v1.21a.4.4,0,0,1-.583.363Z" transform="translate(-12.034 -21.541)"/>
        <path id="Polygon_1" data-name="Polygon 1" d="M4,0,8,6.825H0Z" transform="translate(4.426 15.5) rotate(-90)"/>
      </g>
    </g>
  </g>
</svg>
