<svg id="Group_15916" data-name="Group 15916" xmlns="http://www.w3.org/2000/svg" xmlns:xlink="http://www.w3.org/1999/xlink" width="383.524" height="130.245" viewBox="0 0 383.524 130.245">
  <defs>
    <clipPath id="clip-path">
      <rect id="Rectangle_5111" data-name="Rectangle 5111" width="383.524" height="130.245" fill="none"/>
    </clipPath>
    <clipPath id="clip-path-3">
      <rect id="Rectangle_5101" data-name="Rectangle 5101" width="361.01" height="9.623" fill="none"/>
    </clipPath>
    <clipPath id="clip-path-4">
      <rect id="Rectangle_5102" data-name="Rectangle 5102" width="211.683" height="23.142" fill="none"/>
    </clipPath>
    <clipPath id="clip-path-5">
      <rect id="Rectangle_5103" data-name="Rectangle 5103" width="197.267" height="26.085" fill="none"/>
    </clipPath>
    <clipPath id="clip-path-6">
      <rect id="Rectangle_5104" data-name="Rectangle 5104" width="136.334" height="27.779" fill="none"/>
    </clipPath>
    <clipPath id="clip-path-7">
      <rect id="Rectangle_5105" data-name="Rectangle 5105" width="150.668" height="41.954" fill="none"/>
    </clipPath>
    <clipPath id="clip-path-8">
      <rect id="Rectangle_5106" data-name="Rectangle 5106" width="41.891" height="39.293" fill="none"/>
    </clipPath>
    <clipPath id="clip-path-9">
      <rect id="Rectangle_5107" data-name="Rectangle 5107" width="15.057" height="15.061" fill="none"/>
    </clipPath>
    <clipPath id="clip-path-10">
      <rect id="Rectangle_5108" data-name="Rectangle 5108" width="112.353" height="24.843" fill="none"/>
    </clipPath>
    <clipPath id="clip-path-11">
      <rect id="Rectangle_5109" data-name="Rectangle 5109" width="135.795" height="20.376" fill="none"/>
    </clipPath>
  </defs>
  <g id="Group_15915" data-name="Group 15915" clip-path="url(#clip-path)">
    <g id="Group_15914" data-name="Group 15914">
      <g id="Group_15913" data-name="Group 15913" clip-path="url(#clip-path)">
        <g id="Group_15888" data-name="Group 15888" transform="translate(0 65.239)" opacity="0.5">
          <g id="Group_15887" data-name="Group 15887">
            <g id="Group_15886" data-name="Group 15886" clip-path="url(#clip-path-3)">
              <path id="Path_16741" data-name="Path 16741" d="M357.867,92.425a3.141,3.141,0,0,1-2.973-2.132l-.229-.674H6.343l-.228.674a3.142,3.142,0,1,1,0-2.02l.228.674H76.926l6.1-6.145H280.585l5.98,6.145h68.1l.229-.674a3.141,3.141,0,1,1,2.973,4.152" transform="translate(0 -82.803)" fill="#17ffff"/>
            </g>
          </g>
        </g>
        <g id="Group_15891" data-name="Group 15891" transform="translate(171.841 78.353)" opacity="0.1">
          <g id="Group_15890" data-name="Group 15890">
            <g id="Group_15889" data-name="Group 15889" clip-path="url(#clip-path-4)">
              <path id="Path_16742" data-name="Path 16742" d="M426.644,122.589a3.139,3.139,0,0,1-2.973-2.132l-.229-.674H357.489l-17.448-17.448H223.272l-.251.62a2.553,2.553,0,1,1,0-1.914l.251.621H340.32l17.448,17.448h65.674l.229-.674a3.141,3.141,0,1,1,2.973,4.152" transform="translate(-218.103 -99.446)" fill="#17ffff"/>
            </g>
          </g>
        </g>
        <g id="Group_15894" data-name="Group 15894" transform="translate(115.037 86.654)" opacity="0.19">
          <g id="Group_15893" data-name="Group 15893">
            <g id="Group_15892" data-name="Group 15892" clip-path="url(#clip-path-5)">
              <path id="Path_16743" data-name="Path 16743" d="M340.131,136.067a3.146,3.146,0,0,1-3.142-3.142,3.1,3.1,0,0,1,.326-1.386l.315-.639-13.463-13.463H170.334l-3.737-3.976H152.35l-.229.674a3.143,3.143,0,1,1,0-2.02l.229.674H320.469l17.638,17.637.639-.316a3.1,3.1,0,0,1,1.385-.326,3.142,3.142,0,0,1,0,6.284" transform="translate(-146.007 -109.982)" fill="#17ffff"/>
            </g>
          </g>
        </g>
        <g id="Group_15897" data-name="Group 15897" transform="translate(161.261 102.467)" opacity="0.42">
          <g id="Group_15896" data-name="Group 15896">
            <g id="Group_15895" data-name="Group 15895" clip-path="url(#clip-path-6)">
              <path id="Path_16744" data-name="Path 16744" d="M207.817,157.831a3.142,3.142,0,1,1,1.114-6.077l.6.229,21.929-21.93h98.11l6.055,6.056.663-.385a3.141,3.141,0,1,1-1.331,1.529l.249-.611-5.915-5.915H231.74l-21.657,21.658.41.668a3.136,3.136,0,0,1-2.676,4.78" transform="translate(-204.674 -130.052)" fill="#17ffff"/>
            </g>
          </g>
        </g>
        <g id="Group_15900" data-name="Group 15900" transform="translate(169.122 13.596)" opacity="0.23">
          <g id="Group_15899" data-name="Group 15899">
            <g id="Group_15898" data-name="Group 15898" clip-path="url(#clip-path-7)">
              <path id="Path_16745" data-name="Path 16745" d="M247.647,59.209,219.774,31.336l-.633.3a3.108,3.108,0,0,1-1.346.307,3.142,3.142,0,1,1,3.143-3.142,3.1,3.1,0,0,1-.346,1.426l-.329.644,27.664,27.664h76.183l35.817-35.818-.415-.67a3.159,3.159,0,1,1,1.57,1.289l-.6-.224-36.1,36.1Z" transform="translate(-214.652 -17.256)" fill="#17ffff"/>
            </g>
          </g>
        </g>
        <g id="Group_15903" data-name="Group 15903" transform="translate(229.099)" opacity="0.43">
          <g id="Group_15902" data-name="Group 15902">
            <g id="Group_15901" data-name="Group 15901" clip-path="url(#clip-path-8)">
              <path id="Path_16746" data-name="Path 16746" d="M311.744,39.293q-.476,0-.957-.02A20.945,20.945,0,0,1,290.8,17.417,20.782,20.782,0,0,1,294.99,5.747l.391-.517-.315-.566a3.139,3.139,0,1,1,1.5,1.361l-.725-.312-.468.635A20.276,20.276,0,0,0,310.819,38.6c.308.013.615.02.922.02A20.279,20.279,0,0,0,329.067,7.849l-.409-.674-.75.246A3.143,3.143,0,1,1,329.525,6.2l-.364.536.344.549a20.945,20.945,0,0,1-17.761,32.009" transform="translate(-290.775 0)" fill="#17ffff"/>
            </g>
          </g>
        </g>
        <g id="Group_15906" data-name="Group 15906" transform="translate(242.517 10.818)" opacity="0.23">
          <g id="Group_15905" data-name="Group 15905">
            <g id="Group_15904" data-name="Group 15904" clip-path="url(#clip-path-9)">
              <path id="Path_16747" data-name="Path 16747" d="M315.336,28.791a7.529,7.529,0,1,1,5.08-1.974,7.551,7.551,0,0,1-5.08,1.974Z" transform="translate(-307.806 -13.73)" fill="#17ffff"/>
            </g>
          </g>
        </g>
        <g id="Group_15909" data-name="Group 15909" transform="translate(186.95 21.291)" opacity="0.73">
          <g id="Group_15908" data-name="Group 15908">
            <g id="Group_15907" data-name="Group 15907" clip-path="url(#clip-path-10)">
              <path id="Path_16748" data-name="Path 16748" d="M256.866,51.866,242.054,37.053l-.59.208a3.146,3.146,0,1,1,1.6-1.261l-.436.674,14.519,14.518h67.841l19-19-.316-.639a3.11,3.11,0,0,1-.325-1.385,3.142,3.142,0,1,1,3.141,3.142,3.1,3.1,0,0,1-1.385-.327l-.64-.315-19.2,19.2Z" transform="translate(-237.279 -27.023)" fill="#17ffff"/>
            </g>
          </g>
        </g>
        <g id="Group_15912" data-name="Group 15912" transform="translate(55.094 37.979)" opacity="0.53">
          <g id="Group_15911" data-name="Group 15911">
            <g id="Group_15910" data-name="Group 15910" clip-path="url(#clip-path-11)">
              <path id="Path_16749" data-name="Path 16749" d="M202.577,68.58a3.138,3.138,0,0,1-2.972-2.132l-.229-.674H85.185L75.093,55.682,74.454,56a3.108,3.108,0,0,1-1.387.327,3.142,3.142,0,1,1,3.143-3.143,3.1,3.1,0,0,1-.327,1.387l-.314.639L85.463,65.1h18.552l6.564-6.543H154.7l7.548-7.548h15.265l.229-.674a3.142,3.142,0,1,1,0,2.021l-.229-.674H162.527l-7.981,7.981V65.1h44.83l.229-.674a3.141,3.141,0,1,1,2.972,4.152" transform="translate(-69.926 -48.204)" fill="#17ffff"/>
            </g>
          </g>
        </g>
      </g>
    </g>
  </g>
</svg>
