<svg xmlns="http://www.w3.org/2000/svg" xmlns:xlink="http://www.w3.org/1999/xlink" width="42.514" height="42.514" viewBox="0 0 42.514 42.514">
  <defs>
    <clipPath id="clip-path">
      <rect id="Rectangle_21" data-name="Rectangle 21" width="42.514" height="42.514" fill="#67fff2"/>
    </clipPath>
  </defs>
  <g id="close" transform="translate(-938 -5)">
    <g id="Group_15847" data-name="Group 15847">
      <path id="Path_16597" data-name="Path 16597" d="M14.5,0A14.5,14.5,0,1,1,0,14.5,14.5,14.5,0,0,1,14.5,0Z" transform="translate(945 12)" fill="#67fff2"/>
      <g id="Group_11" data-name="Group 11" transform="translate(938 5)">
        <g id="Group_10" data-name="Group 10" clip-path="url(#clip-path)">
          <path id="Path_2436" data-name="Path 2436" d="M63.807,79.975H61.793c0-.532.023-1.068.069-1.6l2.006.175c-.041.469-.062.947-.062,1.42m.171-2.361-1.993-.292c.077-.526.179-1.054.3-1.57l1.959.467c-.109.458-.2.928-.268,1.395m.515-2.309-1.928-.582c.154-.509.332-1.016.53-1.509l1.869.751c-.176.438-.334.889-.471,1.341m.85-2.21-1.821-.86c.227-.48.478-.956.746-1.414l1.738,1.017c-.239.408-.462.83-.663,1.257m1.166-2.061-1.675-1.118c.294-.441.612-.875.945-1.289l1.571,1.26c-.3.368-.578.754-.84,1.147m1.455-1.868-1.495-1.35c.356-.394.733-.777,1.122-1.138l1.371,1.476c-.346.321-.682.662-1,1.012m1.711-1.637-1.282-1.553c.409-.338.839-.662,1.276-.962l1.141,1.659c-.389.267-.77.555-1.135.856M71.6,66.16l-1.042-1.723c.454-.275.926-.532,1.4-.766l.886,1.809c-.423.207-.843.436-1.247.681m2.108-1.071-.778-1.858c.49-.205.994-.391,1.5-.551l.61,1.919c-.449.143-.9.307-1.332.49m2.243-.75-.5-1.952c.514-.131,1.041-.24,1.565-.324l.321,1.988c-.466.075-.934.172-1.391.288m2.33-.412-.2-2c.526-.054,1.063-.085,1.594-.092l.029,2.014c-.473.007-.951.034-1.419.082" transform="translate(-58.682 -58.718)" fill="#67fff2"/>
          <path id="Path_2437" data-name="Path 2437" d="M79.94,440.35A18.132,18.132,0,0,1,61.794,422.2h2.014A16.132,16.132,0,0,0,79.94,438.336Z" transform="translate(-58.683 -400.947)" fill="#67fff2"/>
          <path id="Path_2438" data-name="Path 2438" d="M426.892,440.348l-.029-2.014c.473-.007.951-.034,1.419-.082l.2,2c-.526.054-1.063.085-1.594.092m2.651-.231-.321-1.988c.466-.075.934-.172,1.391-.288l.5,1.952c-.514.131-1.041.24-1.565.324m2.59-.617-.61-1.919c.449-.143.9-.308,1.332-.49l.778,1.858c-.49.205-.994.391-1.5.551m2.469-.991-.886-1.808c.423-.208.843-.436,1.247-.681L436,437.743c-.454.275-.926.533-1.4.766m2.3-1.343-1.141-1.659c.389-.268.771-.556,1.135-.856l1.282,1.553c-.409.338-.838.662-1.275.962m2.077-1.664-1.371-1.476c.346-.321.682-.662,1-1.012l1.495,1.35c-.356.394-.733.777-1.122,1.138m1.813-1.949-1.571-1.26c.3-.368.578-.754.84-1.147l1.675,1.118c-.294.441-.612.875-.945,1.289m1.51-2.193-1.738-1.017c.239-.407.462-.83.663-1.257l1.821.86c-.227.48-.478.956-.746,1.414m1.173-2.393-1.869-.751c.176-.438.334-.889.471-1.341l1.928.582c-.154.509-.332,1.016-.53,1.509m.808-2.539-1.959-.467c.109-.458.2-.928.268-1.395l1.993.292c-.077.526-.178,1.054-.3,1.57m.425-2.628-2.006-.175c.041-.469.062-.947.062-1.42h2.014c0,.532-.023,1.068-.069,1.6" transform="translate(-405.371 -400.947)" fill="#67fff2"/>
          <path id="Path_2439" data-name="Path 2439" d="M440.35,79.94h-2.014A16.132,16.132,0,0,0,422.2,63.808V61.794A18.132,18.132,0,0,1,440.35,79.94" transform="translate(-400.947 -58.683)" fill="#67fff2"/>
        </g>
      </g>
    </g>
    <path id="Path_18970" data-name="Path 18970" d="M40.193,23.452a1.276,1.276,0,0,1-1.788,1.82L35.39,22.309l-3.015,2.963a1.276,1.276,0,0,1-1.788-1.82l2.984-2.932-2.984-2.933a1.276,1.276,0,1,1,1.788-1.82L35.39,18.73l3.015-2.963a1.276,1.276,0,1,1,1.788,1.82L37.21,20.519Z" transform="translate(924.052 5.934)"/>
  </g>
</svg>
