<svg xmlns="http://www.w3.org/2000/svg" width="251.191" height="21.869" viewBox="0 0 251.191 21.869">
  <g id="Group_15885" data-name="Group 15885" transform="translate(-58.582 -19.746)" opacity="0.76">
    <path id="Path_16723" data-name="Path 16723" d="M68.511,19.746l-9.929,20.8v1.071h8.24L77.263,19.746Z" transform="translate(0)" fill="#4d527b"/>
    <path id="Path_16724" data-name="Path 16724" d="M58.582,19.746V27.7l3.8-7.954Z" fill="#4d527b"/>
    <path id="Path_16725" data-name="Path 16725" d="M118.473,19.746,108.032,41.615h8.751l10.441-21.869Z" transform="translate(-34.431)" fill="#4d527b"/>
    <path id="Path_16726" data-name="Path 16726" d="M169.607,19.746,159.166,41.615h8.751l10.441-21.869Z" transform="translate(-70.033)" fill="#4d527b"/>
    <path id="Path_16727" data-name="Path 16727" d="M220.74,19.746,210.3,41.615h8.751l10.441-21.869Z" transform="translate(-105.635)" fill="#4d527b"/>
    <path id="Path_16728" data-name="Path 16728" d="M271.874,19.746,261.433,41.615h8.751l10.441-21.869Z" transform="translate(-141.238)" fill="#4d527b"/>
    <path id="Path_16729" data-name="Path 16729" d="M323.006,19.746,312.565,41.615h8.751l10.441-21.869Z" transform="translate(-176.839)" fill="#4d527b"/>
    <path id="Path_16730" data-name="Path 16730" d="M374.14,19.746,363.7,41.615h8.751l10.441-21.869Z" transform="translate(-212.442)" fill="#4d527b"/>
    <path id="Path_16731" data-name="Path 16731" d="M425.273,19.746,414.833,41.615h8.751l10.441-21.869Z" transform="translate(-248.044)" fill="#4d527b"/>
    <path id="Path_16732" data-name="Path 16732" d="M476.407,19.746,465.966,41.615h8.751l10.441-21.869Z" transform="translate(-283.646)" fill="#4d527b"/>
    <path id="Path_16733" data-name="Path 16733" d="M527.54,19.746,517.1,41.615h8.751l10.441-21.869Z" transform="translate(-319.249)" fill="#4d527b"/>
    <path id="Path_16734" data-name="Path 16734" d="M578.674,19.746,568.233,41.615h8.751l10.441-21.869Z" transform="translate(-354.851)" fill="#4d527b"/>
    <path id="Path_16735" data-name="Path 16735" d="M629.806,19.746,619.366,41.615h8.751l10.441-21.869Z" transform="translate(-390.453)" fill="#4d527b"/>
    <path id="Path_16736" data-name="Path 16736" d="M680.94,19.746,670.5,41.615h8.751l10.441-21.869Z" transform="translate(-426.055)" fill="#4d527b"/>
    <path id="Path_16737" data-name="Path 16737" d="M732.073,19.746,721.633,41.615h8.751l10.441-21.869Z" transform="translate(-461.658)" fill="#4d527b"/>
    <path id="Path_16738" data-name="Path 16738" d="M783.207,19.746,772.766,41.615h8.751l10.441-21.869Z" transform="translate(-497.26)" fill="#4d527b"/>
    <path id="Path_16739" data-name="Path 16739" d="M834.34,19.746,823.9,41.615h8.751L842.635,20.7v-.956Z" transform="translate(-532.862)" fill="#4d527b"/>
    <path id="Path_16740" data-name="Path 16740" d="M871.9,71.791h4.156V63.086Z" transform="translate(-566.283 -30.176)" fill="#4d527b"/>
  </g>
</svg>
