<svg xmlns="http://www.w3.org/2000/svg" xmlns:xlink="http://www.w3.org/1999/xlink" width="860" height="400" viewBox="0 0 860 400">
  <defs>
    <clipPath id="clip-path">
      <rect id="Rectangle_7237" data-name="Rectangle 7237" width="844.939" height="392.812" fill="none"/>
    </clipPath>
    <clipPath id="clip-path-3">
      <rect id="Rectangle_7235" data-name="Rectangle 7235" width="828.435" height="357.683" transform="translate(8.755 17.519)" fill="none"/>
    </clipPath>
  </defs>
  <g id="menu-panel" transform="translate(-140 -167)">
    <rect id="Rectangle_6932" data-name="Rectangle 6932" width="860" height="400" transform="translate(140 167)" fill="#fff" opacity="0"/>
    <g id="Group_18272" data-name="Group 18272" transform="translate(148 171)">
      <g id="Group_18277" data-name="Group 18277" clip-path="url(#clip-path)">
        <g id="Group_18276" data-name="Group 18276">
          <g id="Group_18275" data-name="Group 18275" clip-path="url(#clip-path)">
            <path id="Path_23396" data-name="Path 23396" d="M11.686,378.818,4.3,371.125A15.549,15.549,0,0,1,0,360.294V32.806A15.548,15.548,0,0,1,4.3,21.975l8.122-8.462a14.316,14.316,0,0,1,10.4-4.482h154.45v1.038H22.823a13.338,13.338,0,0,0-9.688,4.181L5.013,22.719A14.484,14.484,0,0,0,1,32.811V360.3a14.48,14.48,0,0,0,4.013,10.094l7.384,7.693a13.34,13.34,0,0,0,9.688,4.181H177.273v1.043H22.086a14.312,14.312,0,0,1-10.4-4.486" fill="#2c75ff"/>
            <path id="Path_23397" data-name="Path 23397" d="M124.618,389.346a11.137,11.137,0,0,1-8.03,3.466H53.433a11.137,11.137,0,0,1-8.03-3.466l-6.182-6.44,91.329.26Z" fill="#2c75ff"/>
            <path id="Path_23398" data-name="Path 23398" d="M124.618,3.466A11.137,11.137,0,0,0,116.588,0H53.433A11.137,11.137,0,0,0,45.4,3.466l-6.182,6.44,91.329-.26Z" fill="#2c75ff"/>
            <path id="Path_23399" data-name="Path 23399" d="M822.107,10.069a13.338,13.338,0,0,1,9.688,4.181l8.122,8.462A14.483,14.483,0,0,1,843.93,32.8v327.49a14.484,14.484,0,0,1-4.013,10.093l-7.383,7.69a13.341,13.341,0,0,1-9.685,4.181H177.361V383.3H822.85a14.312,14.312,0,0,0,10.4-4.486l7.382-7.69a15.543,15.543,0,0,0,4.306-10.831V32.805a15.541,15.541,0,0,0-4.309-10.83l-8.122-8.462a14.312,14.312,0,0,0-10.4-4.482" fill="#2c75ff"/>
            <path id="Path_23400" data-name="Path 23400" d="M822.555,9.03H177.361v1.039H822.555" fill="#2c75ff"/>
            <path id="Path_23401" data-name="Path 23401" d="M720.312,389.346a11.132,11.132,0,0,0,8.033,3.462H791.5a11.137,11.137,0,0,0,8.03-3.466l6.182-6.44-91.329.26Z" fill="#2c75ff"/>
            <path id="Path_23402" data-name="Path 23402" d="M799.779,3.573a11.137,11.137,0,0,0-8.03-3.466H728.594a11.137,11.137,0,0,0-8.03,3.466l-6.182,6.44,91.329-.26Z" fill="#2c75ff"/>
            <g id="Group_18274" data-name="Group 18274" opacity="0.6">
              <g id="Group_18273" data-name="Group 18273">
                <g id="Group_18272-2" data-name="Group 18272" clip-path="url(#clip-path-3)">
                  <path id="Path_23403" data-name="Path 23403" d="M13.456,30.251,22.7,21.009a11.914,11.914,0,0,1,8.426-3.49h781.8a11.912,11.912,0,0,1,8.425,3.49L833.7,33.36a11.92,11.92,0,0,1,3.49,8.426V351a11.918,11.918,0,0,1-3.49,8.425l-12.289,12.289a11.92,11.92,0,0,1-8.426,3.49H32.22a11.918,11.918,0,0,1-8.426-3.49L12.245,360.163a11.918,11.918,0,0,1-3.49-8.472L9.966,38.63a11.915,11.915,0,0,1,3.49-8.379"/>
                </g>
              </g>
            </g>
          </g>
        </g>
      </g>
    </g>
  </g>
</svg>
