<svg id="text_panel" xmlns="http://www.w3.org/2000/svg" xmlns:xlink="http://www.w3.org/1999/xlink" width="900" height="400" viewBox="0 0 900 400">
  <defs>
    <clipPath id="clip-path">
      <rect id="Rectangle_7249" data-name="Rectangle 7249" width="900" height="400" fill="none"/>
    </clipPath>
    <clipPath id="clip-path-4">
      <rect id="Rectangle_7247" data-name="Rectangle 7247" width="884.938" height="392.812" transform="translate(8 4)" fill="none"/>
    </clipPath>
    <clipPath id="clip-path-5">
      <rect id="Rectangle_7248" data-name="Rectangle 7248" width="868.434" height="357.682" transform="translate(16.755 21.52)" fill="none"/>
    </clipPath>
  </defs>
  <g id="Group_18298" data-name="Group 18298" clip-path="url(#clip-path)">
    <g id="Group_18293" data-name="Group 18293">
      <g id="Group_18292" data-name="Group 18292" clip-path="url(#clip-path)">
        <g id="Group_18291" data-name="Group 18291" opacity="0">
          <g id="Group_18290" data-name="Group 18290">
            <g id="Group_18289" data-name="Group 18289" clip-path="url(#clip-path)">
              <rect id="Rectangle_7244" data-name="Rectangle 7244" width="900" height="400" fill="#fff"/>
            </g>
          </g>
        </g>
      </g>
    </g>
    <g id="Group_18295" data-name="Group 18295">
      <g id="Group_18294" data-name="Group 18294" clip-path="url(#clip-path-4)">
        <path id="Path_23412" data-name="Path 23412" d="M19.686,382.818,12.3,375.125A15.549,15.549,0,0,1,8,364.294V36.806a15.549,15.549,0,0,1,4.3-10.831l8.122-8.462a14.316,14.316,0,0,1,10.4-4.482h154.45v1.038H30.823a13.338,13.338,0,0,0-9.688,4.181l-8.122,8.469A14.484,14.484,0,0,0,9,36.811V364.3a14.478,14.478,0,0,0,4.013,10.094l7.384,7.693a13.338,13.338,0,0,0,9.688,4.181H185.273v1.043H30.086a14.312,14.312,0,0,1-10.4-4.486" fill="#2c75ff"/>
        <path id="Path_23413" data-name="Path 23413" d="M132.618,393.346a11.137,11.137,0,0,1-8.03,3.466H61.433a11.137,11.137,0,0,1-8.03-3.466l-6.182-6.44,91.329.26Z" fill="#2c75ff"/>
        <path id="Path_23414" data-name="Path 23414" d="M132.618,7.466A11.137,11.137,0,0,0,124.588,4H61.433A11.136,11.136,0,0,0,53.4,7.466l-6.182,6.44,91.329-.26Z" fill="#2c75ff"/>
        <path id="Path_23415" data-name="Path 23415" d="M870.107,14.069a13.338,13.338,0,0,1,9.688,4.181l8.122,8.462A14.483,14.483,0,0,1,891.93,36.8V364.29a14.486,14.486,0,0,1-4.013,10.093l-7.383,7.69a13.341,13.341,0,0,1-9.685,4.181H185.361V387.3H870.85a14.312,14.312,0,0,0,10.4-4.486l7.382-7.69a15.542,15.542,0,0,0,4.306-10.831V36.805a15.541,15.541,0,0,0-4.309-10.83l-8.122-8.462a14.316,14.316,0,0,0-10.4-4.482" fill="#2c75ff"/>
        <path id="Path_23416" data-name="Path 23416" d="M870.555,13.03H185.361v1.039H870.555" fill="#2c75ff"/>
        <path id="Path_23417" data-name="Path 23417" d="M768.312,393.346a11.132,11.132,0,0,0,8.033,3.462H839.5a11.138,11.138,0,0,0,8.03-3.466l6.182-6.44-91.329.26Z" fill="#2c75ff"/>
        <path id="Path_23418" data-name="Path 23418" d="M847.779,7.573a11.137,11.137,0,0,0-8.03-3.466H776.594a11.137,11.137,0,0,0-8.03,3.466l-6.182,6.44,91.329-.26Z" fill="#2c75ff"/>
      </g>
    </g>
    <g id="Group_18297" data-name="Group 18297">
      <g id="Group_18296" data-name="Group 18296" clip-path="url(#clip-path-5)">
        <path id="Path_23419" data-name="Path 23419" d="M21.456,34.251,30.7,25.009a11.916,11.916,0,0,1,8.426-3.49h821.8a11.912,11.912,0,0,1,8.425,3.49L881.7,37.36a11.92,11.92,0,0,1,3.49,8.426V355a11.918,11.918,0,0,1-3.49,8.425l-12.289,12.289a11.92,11.92,0,0,1-8.426,3.49H40.22a11.92,11.92,0,0,1-8.426-3.49L20.245,364.163a11.918,11.918,0,0,1-3.49-8.472L17.966,42.63a11.915,11.915,0,0,1,3.49-8.379" fill="#2b3056"/>
      </g>
    </g>
  </g>
</svg>
