<?xml version="1.0" encoding="UTF-8"?>
<svg id="Layer_2" xmlns="http://www.w3.org/2000/svg" xmlns:xlink="http://www.w3.org/1999/xlink" viewBox="0 0 400 450.33">
  <defs>
    <style>
      .cls-1 {
        fill: #2c75ff;
      }

      .cls-2 {
        fill: #fff;
      }

      .cls-3 {
        fill: none;
      }

      .cls-4 {
        fill: #2b3056;
      }

      .cls-5 {
        clip-path: url(#clippath-1);
      }

      .cls-6 {
        clip-path: url(#clippath-3);
      }

      .cls-7 {
        opacity: 0;
      }

      .cls-8 {
        clip-path: url(#clippath-2);
      }

      .cls-9 {
        clip-path: url(#clippath);
      }
    </style>
    <clipPath id="clippath">
      <rect class="cls-3" width="400" height="450.33"/>
    </clipPath>
    <clipPath id="clippath-1">
      <rect class="cls-3" width="400" height="450.33"/>
    </clipPath>
    <clipPath id="clippath-2">
      <rect class="cls-3" x="3.56" y="1.78" width="393.31" height="447.14"/>
    </clipPath>
    <clipPath id="clippath-3">
      <rect class="cls-3" x="7.45" y="9.56" width="385.97" height="431.53"/>
    </clipPath>
  </defs>
  <g id="For_Crops">
    <g id="Group_18293">
      <g class="cls-9">
        <g id="Group_18292">
          <g id="Group_18291" class="cls-7">
            <g id="Group_18290">
              <g class="cls-5">
                <g id="Group_18289">
                  <rect id="Rectangle_7244" class="cls-2" width="400" height="450.33"/>
                </g>
              </g>
            </g>
          </g>
        </g>
      </g>
    </g>
    <g id="Group_18295">
      <g class="cls-8">
        <g id="Group_18294">
          <path id="Path_23412" class="cls-1" d="M8.75,442.7l-3.28-3.42c-1.24-1.3-1.92-3.02-1.91-4.81V16.36c-.01-1.79.67-3.52,1.91-4.81l3.61-3.76c1.2-1.27,2.87-1.99,4.62-1.99h68.64v.46H13.7c-1.63,0-3.19.67-4.31,1.86l-3.61,3.76c-1.15,1.21-1.79,2.82-1.78,4.49v418.11c-.01,1.67.63,3.28,1.78,4.49l3.28,3.42c1.12,1.18,2.68,1.86,4.31,1.86h68.97v.46H13.37c-1.75,0-3.42-.72-4.62-1.99"/>
          <path id="Path_23413" class="cls-1" d="M58.94,447.38c-.93.98-2.22,1.54-3.57,1.54h-28.07c-1.35,0-2.64-.56-3.57-1.54l-2.75-2.86,40.59.12-2.64,2.75Z"/>
          <path id="Path_23414" class="cls-1" d="M58.94,3.32c-.93-.98-2.22-1.54-3.57-1.54h-28.07c-1.35,0-2.64.56-3.57,1.54l-2.75,2.86,40.59-.12-2.64-2.75Z"/>
          <path id="Path_23415" class="cls-1" d="M386.71,6.25c1.63,0,3.19.67,4.31,1.86l3.61,3.76c1.15,1.21,1.79,2.81,1.78,4.48v418.11c0,1.67-.63,3.28-1.78,4.49l-3.28,3.42c-1.12,1.18-2.68,1.86-4.3,1.86H82.38v.46h304.66c1.75,0,3.42-.72,4.62-1.99l3.28-3.42c1.24-1.3,1.92-3.02,1.91-4.81V16.36c.01-1.79-.68-3.52-1.92-4.81l-3.61-3.76c-1.2-1.27-2.87-1.99-4.62-1.99"/>
          <path id="Path_23416" class="cls-1" d="M386.91,5.79H82.38v.46h304.53"/>
          <path id="Path_23417" class="cls-1" d="M341.47,447.38c.93.98,2.22,1.53,3.57,1.54h28.07c1.35,0,2.64-.56,3.57-1.54l2.75-2.86-40.59.12,2.64,2.75Z"/>
          <path id="Path_23418" class="cls-1" d="M376.79,3.37c-.93-.98-2.22-1.54-3.57-1.54h-28.07c-1.35,0-2.64.56-3.57,1.54l-2.75,2.86,40.59-.12-2.64-2.75Z"/>
        </g>
      </g>
    </g>
    <g id="Group_18297">
      <g class="cls-6">
        <g id="Group_18296">
          <path id="Path_23419" class="cls-4" d="M9.54,15.22l4.11-4.11c.99-.99,2.34-1.55,3.74-1.55h365.24c1.4,0,2.75.56,3.74,1.55l5.49,5.49c.99.99,1.55,2.34,1.55,3.74v409.98c0,1.4-.56,2.75-1.55,3.74l-5.46,5.46c-.99.99-2.34,1.55-3.74,1.55H17.88c-1.4,0-2.75-.56-3.74-1.55l-5.13-5.13c-1-1-1.56-2.35-1.55-3.77L7.98,18.95c0-1.4.56-2.74,1.55-3.72"/>
        </g>
      </g>
    </g>
    <rect id="Rectangle_7249" class="cls-3" width="400" height="450.33"/>
  </g>
</svg>