<svg xmlns="http://www.w3.org/2000/svg" xmlns:xlink="http://www.w3.org/1999/xlink" width="594.834" height="597.275" viewBox="0 0 594.834 597.275">
  <defs>
    <clipPath id="clip-path">
      <rect id="Rectangle_5059" data-name="Rectangle 5059" width="594.834" height="597.275" fill="#2c75ff"/>
    </clipPath>
    <clipPath id="clip-path-3">
      <rect id="Rectangle_5057" data-name="Rectangle 5057" width="449.016" height="449.013" fill="#2c75ff"/>
    </clipPath>
  </defs>
  <g id="Group_15856" data-name="Group 15856" transform="translate(-15.231 -100.319)">
    <g id="Group_15768" data-name="Group 15768" transform="translate(15.231 100.319)">
      <g id="Group_15766" data-name="Group 15766" transform="translate(0)" clip-path="url(#clip-path)">
        <g id="Group_15765" data-name="Group 15765">
          <g id="Group_15764" data-name="Group 15764" clip-path="url(#clip-path)">
            <path id="Path_16601" data-name="Path 16601" d="M274.53,531.444c-142.159,0-257.811-115.652-257.811-257.811S132.371,15.825,274.53,15.825,532.341,131.479,532.341,273.633,416.686,531.444,274.53,531.444m0-508.148C136.495,23.3,24.193,135.6,24.193,273.633s112.3,250.34,250.337,250.34,250.337-112.3,250.337-250.34S412.565,23.3,274.53,23.3" transform="translate(25.015 23.677)" fill="#2c75ff"/>
            <path id="Path_16602" data-name="Path 16602" d="M258.405,488.42C131.081,488.42,27.5,384.835,27.5,257.511S131.081,26.6,258.405,26.6,489.314,130.19,489.314,257.511,385.729,488.42,258.405,488.42m0-454.345C135.2,34.076,34.97,134.308,34.97,257.511S135.2,480.947,258.405,480.947,481.841,380.714,481.841,257.511,381.608,34.076,258.405,34.076" transform="translate(41.14 39.802)" fill="#2c75ff"/>
            <path id="Path_16603" data-name="Path 16603" d="M542.721,289.238v1.588h29.535c-.9,154.855-127.137,280.559-282.2,280.559-155.618,0-282.221-126.6-282.221-282.221S134.439,6.94,290.057,6.94c.195,0,.387.007.582.007v24.9h1.493V6.967c.02,0,.042-.025.062-.047V5.472c-.711-.01-1.423-.025-2.137-.025C133.615,5.447,6.341,132.721,6.341,289.163S133.615,572.88,290.057,572.88c156.425,0,283.691-127.252,283.714-283.671Z" transform="translate(9.487 8.15)" fill="#2c75ff"/>
            <path id="Path_16604" data-name="Path 16604" d="M255.462,18.063V0S161.277,12.9,101.928,70.96L91.606,63.219S20.644,121.278,0,206.431l27.1,11.612S63.221,54.188,255.462,18.063" fill="#2c75ff"/>
            <path id="Path_16605" data-name="Path 16605" d="M121.1,328.806l-2.916,17.825s95.033,2.469,162.975-45.249l8.936,9.306s79.4-45.845,113.523-126.55L378.281,167.5S326.167,313.971,121.1,328.806" transform="translate(176.831 250.621)" fill="#2c75ff"/>
            <path id="Path_16606" data-name="Path 16606" d="M230.259,125.583V115.261h25.8s2.581,69.672-29.675,107.087c0,0,16.774-41.287,16.635-95.827Z" transform="translate(338.722 172.454)" fill="#2c75ff"/>
            <path id="Path_16607" data-name="Path 16607" d="M60.16,209.1,46.074,228.135a293.4,293.4,0,0,0,46.484,30.848l8.3-21.622s-17.326-9.618-40.7-28.262" transform="translate(68.936 312.855)" fill="#2c75ff"/>
            <path id="Path_16608" data-name="Path 16608" d="M55.717,215.308a326.9,326.9,0,0,1-29.83-43.881l-11.363,11s7.539,19.333,25.334,45.221Z" transform="translate(21.732 256.49)" fill="#2c75ff"/>
            <path id="Path_16609" data-name="Path 16609" d="M41,190.441l-14.985,14.51a312.459,312.459,0,0,0,39.944,44.6l16.475-16.827A393.777,393.777,0,0,1,41,190.441" transform="translate(38.924 284.939)" fill="#2c75ff"/>
            <g id="Group_15763" data-name="Group 15763" transform="translate(75.992 73.194)" opacity="0.44">
              <g id="Group_15762" data-name="Group 15762">
                <g id="Group_15761" data-name="Group 15761" clip-path="url(#clip-path-3)">
                  <path id="Path_16610" data-name="Path 16610" d="M479.458,253.828c0,123.992-100.515,224.506-224.509,224.506S30.443,377.82,30.443,253.828,130.96,29.322,254.949,29.322,479.458,129.837,479.458,253.828" transform="translate(-30.443 -29.322)" fill="#2c75ff"/>
                </g>
              </g>
            </g>
          </g>
        </g>
      </g>
    </g>
    <circle id="Ellipse_5" data-name="Ellipse 5" cx="226.903" cy="226.903" r="226.903" transform="translate(88.324 170.984)"/>
  </g>
</svg>
